<svg xmlns="http://www.w3.org/2000/svg" width="128" height="128" viewBox="0 0 128 128">
  <g fill="none" fill-rule="evenodd" transform="translate(30 19)">
    <text fill="#000" font-family="Geometria-Bold, Geometria" font-size="10" font-weight="bold">
      <tspan x="7.93" y="67">One Sticky</tspan> <tspan x="12.875" y="79" font-family="Geometria" font-weight="normal">for Posts</tspan>
    </text>
    <g fill-rule="nonzero" transform="translate(13)">
      <polygon fill="#EA9860" points="30.869 17.021 12.131 17.021 9.28 25.979 33.72 25.979"/>
      <path fill="#EA9860" d="M25.93717 1.52003208C25.8190723 1.14822542 25.4735135.895833333 25.0833333.895833333L17.9166667.895833333C17.5264865.895833333 17.1809277 1.14822542 17.06283 1.52003208L14.411029 9.85416667 28.588971 9.85416667 25.93717 1.52003208zM38.4788367 40.9366988L35.9999315 33.1458333 7.00006854 33.1458333 4.52116333 40.9366988C4.43455417 41.2092113 4.48354729 41.5062158 4.65151604 41.7371706 4.82035375 41.9676954 5.08892458 42.1041667 5.375 42.1041667L37.625 42.1041667C37.9110754 42.1041667 38.1796462 41.9676954 38.3484929 41.7371706 38.5164617 41.5062158 38.5654458 41.2092113 38.4788367 40.9366988z"/>
      <polygon fill="#E6E6E6" points="33.72 25.979 9.28 25.979 7 33.146 36 33.146"/>
      <polygon fill="#E6E6E6" points="28.589 9.854 14.411 9.854 12.131 17.021 30.869 17.021"/>
      <path fill="#D68650" d="M40.3125,42.1041667 L2.6875,42.1041667 C1.69806104,42.1041667 0.895833333,41.301939 0.895833333,40.3125 C0.895833333,39.323061 1.69806104,38.5208333 2.6875,38.5208333 L40.3125,38.5208333 C41.301939,38.5208333 42.1041667,39.323061 42.1041667,40.3125 C42.1041667,41.301939 41.301939,42.1041667 40.3125,42.1041667 Z"/>
    </g>
  </g>
</svg>
